<svg width="173" height="60" viewBox="0 0 173 60" fill="none" xmlns="http://www.w3.org/2000/svg">
<g clip-path="url(#clip0)">
<path d="M25.4157 33.4881C25.4157 37.7344 21.2698 38.9995 17.6375 38.9995C13.5892 39 10.0216 37.139 10 33.0734H16.2939C16.2939 33.8522 17.0125 34.0596 17.7312 34.0596C18.4223 34.0596 19.0281 33.8776 19.0281 33.2808C19.0281 32.7536 18.6357 32.5019 17.4776 32.3856C13.935 32.0872 10.0917 31.4884 10.0917 27.2169C10.0917 23.9321 13.6343 22 17.6375 22C21.8285 22 25.066 23.7695 25.1621 27.4671H19.0257C18.9982 26.9613 18.3772 26.7111 17.7503 26.7111C17.1975 26.7111 16.4788 26.9418 16.4788 27.6102C16.4788 28.1588 16.9203 28.4124 17.4766 28.4572C20.8784 28.7322 25.4147 29.1241 25.4147 33.4881H25.4157ZM25.9303 27.5133H29.3831V38.5634H35.7035V27.5133H39.1504V22.4824H25.9313L25.9303 27.5133ZM46.2439 38.5634H39.922V22.4824H46.9149C50.9456 22.5077 54.855 23.6083 54.855 28.4124C54.855 30.7514 53.9078 32.2264 52.4726 33.0963L55.1106 38.0615V38.5634H48.7446L46.6844 34.2923H46.2429L46.2439 38.5634ZM46.1737 29.4663H47.0528C48.0936 29.4449 48.5817 29.1913 48.5817 28.4119C48.5817 27.6521 48.0912 27.3074 47.0528 27.3074H46.1747L46.1737 29.4663ZM83.3962 22.4824V27.5138H86.8451V38.5638H93.1665V27.5138H96.6154V22.4824H83.3962ZM118.553 33.8776C118.442 36.6313 116.264 38.5385 113.419 38.5385H103.231V22.4595H113.462C115.866 22.4595 117.789 24.4826 117.723 26.8722C117.698 28.1588 117.005 29.3509 115.729 29.7929C117.652 30.5294 118.672 31.7698 118.551 33.8819L118.553 33.8776ZM109.549 28.4377H110.732C111.82 28.4377 111.888 26.7574 110.732 26.7574H109.549V28.4377ZM112.282 33.1196C112.282 32.6139 111.956 32.11 111.124 32.11H109.548V34.1273H111.124C111.934 34.1273 112.282 33.6235 112.282 33.1196ZM68.8629 33.5368H62.1702V31.9942H68.8629V29.0521H62.1702V27.5138H68.8629V22.4824H55.8724V38.5638H68.8629V33.5368ZM69.6385 38.5658H82.6231V33.5368H75.9304V31.9942H82.6207V29.0521H75.9304V27.5138H82.6207V22.4824H69.636L69.6385 38.5658ZM148.991 27.4924H152.44V38.5424H158.756V27.4924H162.21V22.4595H148.989L148.991 27.4924ZM145.811 22.4654L151.705 37.9242V38.5405H145.532L144.854 36.7009H140.009L139.332 38.5419H133.156V37.9242L139.05 22.4654H145.811ZM143.351 32.5905L142.431 28.5925L141.515 32.5905H143.351ZM119.395 38.5405H132.38V33.5115H125.689V31.9747H132.379V29.0292H125.689V27.4905H132.379V22.4595H119.395V38.5405Z" fill="#0A3241"/>
</g>
<defs>
<clipPath id="clip0">
<rect width="152.209" height="17" fill="white" transform="translate(10 22)"/>
</clipPath>
</defs>
</svg>
